<svg width="450" height="100" viewBox="0 0 450 100" fill="none" xmlns="http://www.w3.org/2000/svg">
<mask id="mask0" mask-type="alpha" maskUnits="userSpaceOnUse" x="0" y="0" width="100" height="100">
<rect width="100" height="100" fill="#C4C4C4"/>
</mask>
<g mask="url(#mask0)">
<path d="M56.6658 89.9708C79.1071 83.9577 92.4248 60.8909 86.4117 38.4496C80.3985 16.0083 57.3317 2.69059 34.8904 8.70372C12.4491 14.7168 -0.868559 37.7837 5.14457 60.225C11.1577 82.6663 34.2246 95.984 56.6658 89.9708Z" fill="url(#paint0_radial)"/>
<path opacity="0.5" d="M56.6658 89.9708C79.1071 83.9577 92.4248 60.8909 86.4117 38.4496C80.3985 16.0083 57.3317 2.69059 34.8904 8.70372C12.4491 14.7168 -0.868559 37.7837 5.14457 60.225C11.1577 82.6663 34.2246 95.984 56.6658 89.9708Z" fill="url(#paint1_radial)"/>
<path d="M53.8426 27.5246C53.6933 25.8498 55.4075 24.6284 58.5149 24.3401C61.1702 24.0914 67.1362 25.0242 71.6299 29.8084C72.4677 30.6999 71.3557 31.3245 70.5811 30.7699C67.9283 28.8949 61.0566 26.8166 55.9465 27.8592C53.8808 28.2766 53.8426 27.5246 53.8426 27.5246Z" fill="url(#paint2_linear)"/>
<path d="M60.5585 35.115C60.5585 35.115 67.8346 33.9275 71.2513 38.7553C71.4667 39.0514 71.6381 39.3865 71.708 39.7489C71.8986 40.46 71.4424 41.3988 69.9889 41.0533C61.0677 38.8437 57.117 42.0798 54.139 44.3749C52.9935 45.2806 51.4714 44.273 51.5647 42.9959C51.5779 42.6386 51.5842 42.2558 51.6803 41.9034C53.2943 36.2449 60.5585 35.115 60.5585 35.115Z" fill="url(#paint3_radial)"/>
<path d="M60.8552 36.832C60.8552 36.832 66.7766 35.8714 71.5669 39.324C71.487 39.1277 71.3818 38.9381 71.2512 38.7554C67.8345 33.9276 60.5585 35.115 60.5585 35.115C60.5585 35.115 53.2688 36.2517 51.6802 41.9035C51.6263 42.1085 51.5791 42.3389 51.5828 42.5556C54.927 37.7672 60.8552 36.832 60.8552 36.832Z" fill="url(#paint4_linear)"/>
<path d="M75.0497 48.87C74.7109 48.8247 74.3808 48.9132 74.0965 49.071C66.1659 53.809 57.6107 57.4351 48.5952 59.8509C39.605 62.2598 30.3576 63.4039 21.1205 63.2659C20.7885 63.246 20.4652 63.3598 20.1944 63.5685C19.3569 64.2012 18.2835 65.9858 21.6494 70.8272C26.4005 76.8762 37.2126 86.8538 54.6088 82.1925C71.9288 77.5516 76.3476 63.4657 77.4376 55.8516C77.9133 50.0081 76.0914 48.9992 75.0497 48.87Z" fill="url(#paint5_radial)"/>
<path d="M27.888 34.4792C27.1799 32.9541 25.0847 32.7534 22.2495 34.0575C19.8255 35.1697 15.1253 38.9605 13.6256 45.3506C13.3459 46.5415 14.6211 46.5265 15.0147 45.6589C16.3745 42.7087 21.2865 37.4729 26.2333 35.8208C28.2055 35.1563 27.888 34.4792 27.888 34.4792Z" fill="url(#paint6_linear)"/>
<path d="M25.8416 44.4173C25.8416 44.4173 18.9466 47.027 18.4016 52.9163C18.3631 53.2805 18.3821 53.6564 18.5028 54.0052C18.6933 54.7163 19.5578 55.3012 20.6439 54.2753C27.265 47.9011 32.3045 48.7283 36.031 49.2269C37.4759 49.4385 38.2903 47.8049 37.5709 46.7456C37.3809 46.4426 37.184 46.1143 36.9246 45.8572C32.7229 41.7569 25.8416 44.4173 25.8416 44.4173Z" fill="url(#paint7_radial)"/>
<path d="M26.443 46.0526C26.443 46.0526 20.8347 48.1814 18.4125 53.5666C18.3835 53.3566 18.3798 53.1399 18.4016 52.9163C18.9466 47.0269 25.8416 44.4173 25.8416 44.4173C25.8416 44.4173 32.7229 41.7569 36.9246 45.8572C37.0738 46.0077 37.2298 46.1837 37.335 46.3732C32.0446 43.8984 26.443 46.0526 26.443 46.0526Z" fill="url(#paint8_linear)"/>
<path d="M18.7675 72.3619C20.3488 77.6543 16.3656 81.9879 12.0863 82.3724C7.83239 82.75 3.51835 79.5509 3.68479 74.2802C4.08195 62.2517 18.5788 56.217 18.5788 56.217C18.5788 56.217 16.6385 65.2293 18.7675 72.3619Z" fill="url(#paint9_linear)"/>
<path d="M13.1114 72.7887C10.9953 77.7925 3.23981 77.3936 4.05244 71.487C3.85706 72.3832 3.72608 73.3165 3.6917 74.3056C3.52526 79.5763 7.8461 82.8009 12.0932 82.3978C16.3471 82.0201 20.3304 77.6865 18.7744 72.3873C16.6708 65.2479 18.5857 56.2424 18.5857 56.2424C12.6111 66.5535 14.1416 70.3352 13.1114 72.7887Z" fill="url(#paint10_linear)"/>
<path d="M16.4312 69.2316C17.2143 78.2491 6.86952 80.8849 3.71807 75.5233C4.19601 80.0498 8.15719 82.7446 12.0859 82.3724C16.3398 81.9947 20.3231 77.6611 18.7671 72.362C16.6635 65.2226 18.5784 56.2171 18.5784 56.2171C18.5784 56.2171 15.7839 61.8381 16.4312 69.2316Z" fill="url(#paint11_linear)"/>
<path d="M16.3245 74.6224C14.1002 81.1523 6.79133 80.3887 3.94343 76.7695C4.44698 78.6488 5.60718 80.1344 7.07165 81.1302C14.9712 84.403 19.6326 76.4035 18.8304 72.6989C18.8032 72.5973 18.776 72.4957 18.7488 72.3942C18.7148 72.2672 18.6807 72.1402 18.6399 71.9878C16.716 64.9092 18.5601 56.2492 18.5601 56.2492C15.0625 65.951 19.0535 66.6236 16.3245 74.6224Z" fill="url(#paint12_linear)"/>
<path opacity="0.75" d="M18.5788 56.217C18.5788 56.217 9.29929 64.5555 9.74782 69.9881C10.1964 75.4207 4.54191 74.4316 4.943 71.3572C5.67496 65.9622 12.57 59.188 18.5788 56.217Z" fill="url(#paint13_linear)"/>
<path d="M54.0802 80.3206C61.2672 78.3948 66.0846 74.7359 69.3127 70.6318C64.3309 69.8164 58.5169 69.9588 51.7869 71.7621C45.057 73.5654 39.9253 76.3558 36.0186 79.553C40.8664 81.4931 46.8677 82.2532 54.0802 80.3206Z" fill="url(#paint14_radial)"/>
<path d="M80.6827 55.7717C81.9593 61.1457 87.5758 62.9071 91.474 61.1004C95.3468 59.3006 97.4833 54.373 94.7038 49.8917C88.3456 39.6733 72.7736 41.6955 72.7736 41.6955C72.7736 41.6955 78.9347 48.5371 80.6827 55.7717Z" fill="url(#paint15_linear)"/>
<path d="M85.7944 53.3133C90.1289 56.5887 96.6459 52.3655 92.9889 47.6565C93.6061 48.3349 94.1862 49.0777 94.7106 49.9171C97.4901 54.3985 95.3604 59.3514 91.4808 61.1259C87.6079 62.9258 81.9915 61.1644 80.6895 55.7972C78.9415 48.5625 72.7804 41.7209 72.7804 41.7209C83.0847 47.6701 83.6501 51.7104 85.7944 53.3133Z" fill="url(#paint16_linear)"/>
<path d="M81.1152 51.8996C84.9458 60.1006 95.2225 57.2108 95.2709 50.9919C97.1202 55.1508 95.0372 59.4652 91.4487 61.1073C87.5759 62.9071 81.9595 61.1457 80.6575 55.7786C78.9095 48.5439 72.7484 41.7023 72.7484 41.7023C72.7484 41.7023 77.979 45.173 81.1152 51.8996Z" fill="url(#paint17_linear)"/>
<path d="M83.9031 56.5148C89.0944 61.0576 95.0422 56.742 95.699 52.1837C96.2025 54.063 95.9406 55.9296 95.1702 57.5243C89.9654 64.3083 81.9288 59.7113 80.7711 56.1019C80.7439 56.0003 80.7167 55.8988 80.6895 55.7972C80.6554 55.6702 80.6214 55.5432 80.5806 55.3909C78.7074 48.2986 72.7804 41.7209 72.7804 41.7209C80.6856 48.3673 77.5657 50.9453 83.9031 56.5148Z" fill="url(#paint18_linear)"/>
<path opacity="0.75" d="M72.7736 41.6955C72.7736 41.6955 84.9792 44.2772 87.307 49.2062C89.628 54.1098 94.0372 50.4514 92.1527 47.9895C88.8212 43.6832 79.4629 41.2641 72.7736 41.6955Z" fill="url(#paint19_linear)"/>
<path d="M20.8531 63.2836C20.7955 63.2718 20.7193 63.2923 20.6685 63.3059C20.098 63.5132 17.4609 64.8458 21.6242 70.8345C23.5342 73.2897 26.4491 76.3465 30.3881 78.8568C26.6387 76.2413 29.6398 73.4229 36.1167 72.504C42.5937 71.5851 51.1267 69.2987 51.1267 69.2987L48.5953 59.8513C39.5104 62.3129 30.18 63.452 20.8531 63.2836Z" fill="url(#paint20_linear)"/>
<path d="M74.3114 48.9595C74.3554 48.9205 74.4316 48.9001 74.4824 48.8864C75.0801 48.7807 78.0302 48.6163 77.419 55.8843C76.9926 58.9655 75.9965 63.0703 73.8404 67.2137C75.7798 63.0739 71.7715 62.1337 65.7029 64.5764C59.6342 67.0191 51.1012 69.3055 51.1012 69.3055L48.5698 59.8582C57.6684 57.4474 66.3183 53.7687 74.3114 48.9595Z" fill="url(#paint21_linear)"/>
<path d="M74.0825 58.4661C75.1759 57.8738 75.7994 56.6452 75.5743 55.3989L74.8424 50.9406C66.8356 55.699 58.2043 59.3455 49.1126 61.7817C40.0462 64.211 30.7226 65.3755 21.4093 65.2579L23.0046 69.4849C23.4515 70.6445 24.5871 71.429 25.8302 71.3953C34.2065 71.1651 42.5596 69.9341 50.7117 67.7497C58.8638 65.5654 66.7133 62.4549 74.0825 58.4661Z" fill="url(#paint22_radial)"/>
</g>
<path d="M190.938 16.875C199.062 18.9583 202.083 21.3542 200 24.0625C198.75 25.3125 196.562 28.6458 193.438 34.0625C191.979 36.5625 190.938 38.3333 190.312 39.375C189.479 40.4167 188.75 40.8333 188.125 40.625C187.5 40.625 186.979 39.8958 186.562 38.4375L177.812 40V47.1875C178.438 46.9792 179.375 46.7708 180.625 46.5625C183.125 45.7292 184.688 45.4167 185.312 45.625C186.771 45.625 187.604 45.9375 187.812 46.5625C188.229 47.3958 187.917 48.0208 186.875 48.4375C186.458 48.4375 185.833 48.5417 185 48.75C182.708 49.375 180.312 50 177.812 50.625V56.5625C179.896 56.3542 182.604 55.9375 185.938 55.3125C189.271 54.6875 191.25 54.375 191.875 54.375C193.958 54.5833 195.521 55.4167 196.562 56.875C196.979 57.9167 196.146 58.4375 194.062 58.4375C184.271 58.4375 174.479 59.4792 164.688 61.5625C163.021 61.9792 161.979 62.1875 161.562 62.1875C157.604 61.3542 156.146 60.3125 157.188 59.0625C161.771 58.6458 167.5 57.9167 174.375 56.875V50.9375C171.458 51.3542 169.062 51.5625 167.188 51.5625C164.271 50.9375 163.229 50.3125 164.062 49.6875C167.188 49.0625 170.625 48.4375 174.375 47.8125V40.3125L168.438 41.875C168.646 43.75 168.333 44.6875 167.5 44.6875C166.667 44.6875 165.833 43.6458 165 41.5625C164.792 40.9375 164.271 39.4792 163.438 37.1875C160.938 30.3125 158.75 25.625 156.875 23.125C155.833 21.0417 157.917 20.7292 163.125 22.1875C176.042 20.5208 185.208 18.75 190.625 16.875C190.833 16.875 190.938 16.875 190.938 16.875ZM190.625 20.625C187.708 20.4167 182.604 20.9375 175.312 22.1875C177.812 23.2292 179.062 24.2708 179.062 25.3125C179.062 25.5208 178.958 26.0417 178.75 26.875C178.125 30.4167 177.812 34.1667 177.812 38.125L188.125 36.5625C188.542 35.5208 189.062 34.0625 189.688 32.1875C190.521 30.3125 191.146 28.75 191.562 27.5C193.021 22.5 192.708 20.2083 190.625 20.625ZM173.125 22.5L163.125 24.0625L167.5 40L174.375 38.75C174.583 30 174.167 24.5833 173.125 22.5ZM184.062 23.75C185.729 23.3333 187.083 24.375 188.125 26.875C188.333 27.2917 186.667 28.9583 183.125 31.875C182.292 32.5 181.562 32.8125 180.938 32.8125C180.312 32.8125 180.208 32.5 180.625 31.875C182.083 29.375 183.021 27.0833 183.438 25C183.646 24.375 183.854 23.9583 184.062 23.75ZM167.812 29.375C167.396 28.3333 167.396 27.7083 167.812 27.5C168.229 27.5 169.167 27.9167 170.625 28.75C172.708 31.6667 173.021 33.3333 171.562 33.75C170.729 33.75 169.583 32.3958 168.125 29.6875C167.917 29.4792 167.812 29.375 167.812 29.375ZM149.375 30C155.833 31.6667 158.438 33.5417 157.188 35.625C155.521 37.2917 153.854 40.3125 152.188 44.6875C154.896 46.5625 155.417 47.8125 153.75 48.4375C151.25 48.8542 147.396 49.6875 142.188 50.9375C142.396 53.2292 142.292 54.7917 141.875 55.625C141.042 56.25 140.312 55.9375 139.688 54.6875C139.062 52.6042 138.125 49.5833 136.875 45.625C135.208 39.7917 133.854 36.1458 132.812 34.6875C131.771 32.8125 134.062 32.6042 139.688 34.0625C141.979 33.4375 144.375 32.3958 146.875 30.9375C148.125 30.3125 148.958 30 149.375 30ZM148.125 34.375C147.083 34.375 145.417 34.7917 143.125 35.625C141.042 36.4583 139.583 36.875 138.75 36.875L141.562 48.125L147.5 46.25C149.167 39.5833 149.375 35.625 148.125 34.375ZM192.812 66.875C191.146 64.7917 192.188 64.4792 195.938 65.9375C200.104 67.8125 203.021 69.6875 204.688 71.5625C206.979 74.8958 206.979 77.0833 204.688 78.125C203.229 78.125 200.625 76.0417 196.875 71.875C195.208 69.7917 193.854 68.125 192.812 66.875ZM178.125 67.1875C177.5 65.5208 178.125 65.1042 180 65.9375C180.625 66.1458 181.146 66.3542 181.562 66.5625C184.062 67.8125 185.417 69.5833 185.625 71.875C185.833 73.9583 185 74.6875 183.125 74.0625C181.25 72.8125 179.583 70.5208 178.125 67.1875ZM164.688 68.125C164.479 67.2917 164.583 66.875 165 66.875C165.208 66.6667 165.938 66.7708 167.188 67.1875C170.521 68.6458 172.083 70.625 171.875 73.125C171.458 74.7917 170.417 75.2083 168.75 74.375C167.292 73.125 165.938 71.0417 164.688 68.125ZM154.062 69.0625C154.479 67.8125 155 67.5 155.625 68.125C156.25 68.5417 156.562 69.6875 156.562 71.5625C156.771 74.8958 155.625 77.9167 153.125 80.625C152.083 81.4583 151.25 81.6667 150.625 81.25C150 80.625 149.688 79.5833 149.688 78.125C149.688 76.875 150.417 75.2083 151.875 73.125C153.125 71.25 153.854 69.8958 154.062 69.0625ZM231.25 17.5C234.375 17.5 237.188 18.2292 239.688 19.6875C241.562 21.1458 242.083 23.0208 241.25 25.3125C240.208 26.9792 238.646 27.0833 236.562 25.625C235.729 25 234.583 24.1667 233.125 23.125C227.708 19.5833 227.083 17.7083 231.25 17.5ZM272.5 24.0625C271.25 24.2708 269.479 24.8958 267.188 25.9375C263.646 27.1875 260.312 28.3333 257.188 29.375C262.604 31.0417 264.583 32.6042 263.125 34.0625C262.708 34.6875 262.188 36.3542 261.562 39.0625C261.354 39.8958 261.146 40.5208 260.938 40.9375C264.896 40.1042 268.854 39.2708 272.812 38.4375C275.521 37.8125 277.188 37.5 277.812 37.5C284.062 38.3333 286.875 40 286.25 42.5C285.833 43.125 284.583 43.3333 282.5 43.125C276.25 42.2917 268.854 42.5 260.312 43.75C259.688 46.25 259.062 49.4792 258.438 53.4375C258.229 54.4792 258.125 55.1042 258.125 55.3125C263.75 54.2708 267.396 53.3333 269.062 52.5C270.729 52.5 273.021 53.5417 275.938 55.625C277.812 57.2917 278.333 58.4375 277.5 59.0625C273.958 61.3542 271.771 64.0625 270.938 67.1875C271.354 67.8125 271.771 68.4375 272.188 69.0625C273.021 69.4792 273.229 70 272.812 70.625C272.812 70.625 272.396 70.625 271.562 70.625C265.938 70.8333 259.271 71.6667 251.562 73.125C251.771 75.625 251.354 76.875 250.312 76.875C249.271 76.4583 248.333 75.1042 247.5 72.8125C247.292 72.1875 247.188 70.9375 247.188 69.0625C246.771 63.6458 245.938 60 244.688 58.125C244.062 57.0833 243.75 56.3542 243.75 55.9375C243.958 55.7292 244.375 55.7292 245 55.9375C245.833 55.9375 246.875 56.1458 248.125 56.5625C248.75 56.5625 249.271 56.6667 249.688 56.875C249.896 57.0833 250.833 56.9792 252.5 56.5625C253.542 56.3542 254.167 56.25 254.375 56.25C254.375 56.0417 254.479 55.625 254.688 55C255.104 51.875 255.625 48.2292 256.25 44.0625C254.583 44.6875 251.354 45.3125 246.562 45.9375C244.896 46.3542 243.958 46.5625 243.75 46.5625C242.5 46.7708 240.833 46.1458 238.75 44.6875C237.708 43.8542 237.917 43.3333 239.375 43.125C247.5 42.7083 253.229 42.0833 256.562 41.25C256.562 40.8333 256.667 40.3125 256.875 39.6875C257.5 35.1042 257.083 31.875 255.625 30C248.75 32.2917 246.146 32.5 247.812 30.625C257.812 25.8333 263.021 22.3958 263.438 20.3125C263.229 18.0208 265.208 17.6042 269.375 19.0625C274.375 21.7708 275.417 23.4375 272.5 24.0625ZM229.375 37.1875C230.208 36.5625 231.875 36.7708 234.375 37.8125C236.25 38.6458 236.875 39.4792 236.25 40.3125C234.375 42.3958 232.917 46.3542 231.875 52.1875C231.667 55.3125 231.562 59.1667 231.562 63.75C232.812 63.125 235.521 61.5625 239.688 59.0625C241.146 58.0208 241.979 57.7083 242.188 58.125C242.396 58.5417 241.875 59.375 240.625 60.625C234.375 66.6667 230.312 71.0417 228.438 73.75C226.146 74.5833 224.792 72.5 224.375 67.5C226.25 66.4583 227.604 62.3958 228.438 55.3125C229.271 48.2292 229.375 44.0625 228.75 42.8125C225.417 43.6458 222.292 44.8958 219.375 46.5625C218.542 46.9792 218.021 47.1875 217.812 47.1875C213.646 45.3125 212.188 43.9583 213.438 43.125C213.646 43.125 213.958 43.125 214.375 43.125C218.542 42.7083 221.875 42.0833 224.375 41.25C226.25 40.625 227.917 39.2708 229.375 37.1875ZM267.812 57.1875C266.562 56.1458 260.833 56.7708 250.625 59.0625C250.833 61.3542 251.042 63.8542 251.25 66.5625C251.458 68.2292 251.562 69.4792 251.562 70.3125C258.438 69.4792 262.708 68.6458 264.375 67.8125C265.417 66.9792 266.458 65 267.5 61.875C268.333 59.1667 268.438 57.6042 267.812 57.1875ZM309.688 14.375C313.021 14.375 315.938 15.3125 318.438 17.1875C319.688 18.8542 320.208 20.7292 320 22.8125C319.583 24.0625 318.438 24.1667 316.562 23.125C308.021 17.5 305.729 14.5833 309.688 14.375ZM351.25 18.4375C352.5 18.0208 354.583 18.6458 357.5 20.3125C360.208 21.9792 361.25 23.2292 360.625 24.0625C358.125 24.0625 357.396 30.4167 358.438 43.125C358.646 49.1667 358.75 54.2708 358.75 58.4375C358.958 69.6875 357.188 76.4583 353.438 78.75C352.604 79.375 351.354 78.4375 349.688 75.9375C348.021 73.6458 346.562 71.9792 345.312 70.9375C343.854 69.6875 343.125 68.9583 343.125 68.75C343.125 68.3333 343.958 68.2292 345.625 68.4375C348.75 69.0625 350.833 69.2708 351.875 69.0625C353.125 67.6042 353.854 59.6875 354.062 45.3125C354.062 31.7708 353.438 24.4792 352.188 23.4375C351.562 23.0208 346.25 23.6458 336.25 25.3125C334.583 25.5208 333.542 25.625 333.125 25.625C329.375 23.9583 328.229 22.7083 329.688 21.875C339.479 21.875 346.667 20.7292 351.25 18.4375ZM310.625 30.9375C314.792 30.5208 317.083 31.4583 317.5 33.75C315.625 36.0417 314.479 38.3333 314.062 40.625C313.646 42.7083 313.229 48.6458 312.812 58.4375C315.938 56.7708 318.125 55.5208 319.375 54.6875C321.667 53.2292 323.021 52.7083 323.438 53.125C323.646 53.3333 322.812 54.375 320.938 56.25C314.896 61.6667 310.521 66.3542 307.812 70.3125C306.979 70.7292 306.042 69.4792 305 66.5625C304.375 64.4792 304.479 63.125 305.312 62.5C307.604 61.0417 308.958 57.0833 309.375 50.625C309.375 50 309.375 49.5833 309.375 49.375C309.375 45.8333 309.583 41.5625 310 36.5625C306.667 37.6042 304.062 38.75 302.188 40C301.562 40.4167 301.042 40.625 300.625 40.625C299.375 40.625 297.708 40 295.625 38.75C293.75 37.5 293.438 36.875 294.688 36.875C300.521 37.0833 305.833 35.1042 310.625 30.9375ZM341.562 31.25C345.312 32.0833 346.771 33.125 345.938 34.375C343.229 35.625 338.229 36.3542 330.938 36.5625C326.979 35.7292 325.521 34.7917 326.562 33.75C328.229 33.5417 331.771 32.9167 337.188 31.875C339.271 31.6667 340.729 31.4583 341.562 31.25ZM338.75 41.875C343.958 41.875 346.667 43.125 346.875 45.625C345 47.0833 343.646 49.375 342.812 52.5C344.062 53.75 344.583 54.8958 344.375 55.9375C344.375 56.3542 342.5 56.6667 338.75 56.875C335.208 57.0833 332.188 57.2917 329.688 57.5C329.479 60.2083 328.958 61.3542 328.125 60.9375C327.292 60.3125 326.562 58.3333 325.938 55C325.938 54.7917 325.938 54.4792 325.938 54.0625C325.104 50.3125 324.167 47.5 323.125 45.625C321.25 43.5417 322.917 43.125 328.125 44.375C328.542 44.375 329.167 44.2708 330 44.0625C335 43.4375 337.917 42.7083 338.75 41.875ZM339.062 45.625C337.604 45 334.271 45.4167 329.062 46.875C328.854 47.0833 329.062 49.375 329.688 53.75C329.688 54.5833 329.688 55 329.688 55C331.771 55 334.583 54.4792 338.125 53.4375C339.167 51.3542 339.479 48.75 339.062 45.625ZM412.188 12.1875C415.729 11.9792 418.542 13.125 420.625 15.625C420.625 16.0417 420.521 16.6667 420.312 17.5C419.062 20 418.125 23.75 417.5 28.75C420.208 28.3333 422.708 27.8125 425 27.1875C426.042 26.7708 426.771 26.5625 427.188 26.5625C431.354 28.2292 433.958 29.8958 435 31.5625C435 31.7708 434.792 32.1875 434.375 32.8125C431.458 36.7708 428.854 43.8542 426.562 54.0625C429.479 53.8542 432.604 53.3333 435.938 52.5C437.604 52.2917 438.646 52.1875 439.062 52.1875C442.188 53.0208 444.479 54.375 445.938 56.25C446.979 57.7083 446.146 58.4375 443.438 58.4375C432.188 57.8125 421.771 57.8125 412.188 58.4375C399.688 59.6875 390 61.3542 383.125 63.4375C381.667 63.8542 380.729 64.0625 380.312 64.0625C378.646 64.0625 376.875 63.4375 375 62.1875C373.75 61.1458 373.958 60.5208 375.625 60.3125C380 60.1042 385.938 59.375 393.438 58.125C392.604 51.0417 391.146 44.5833 389.062 38.75C388.646 37.5 387.917 36.1458 386.875 34.6875C386.25 33.4375 386.042 32.7083 386.25 32.5C386.458 32.0833 387.5 32.0833 389.375 32.5C390.625 32.7083 391.667 32.9167 392.5 33.125C393.333 32.9167 394.688 32.7083 396.562 32.5C398.646 32.0833 400.312 31.7708 401.562 31.5625C401.354 25.7292 400.208 21.6667 398.125 19.375C397.917 18.9583 397.812 18.6458 397.812 18.4375C400.312 17.8125 403.021 18.5417 405.938 20.625C405.938 21.0417 405.938 21.7708 405.938 22.8125C405.521 25.1042 405.208 27.8125 405 30.9375L414.062 29.375C414.479 23.3333 413.958 18.3333 412.5 14.375C412.083 13.3333 411.979 12.6042 412.188 12.1875ZM417.188 31.25L416.25 40.3125C416.875 40.1042 417.604 39.8958 418.438 39.6875C418.854 39.4792 419.271 39.375 419.688 39.375C420.938 39.5833 421.771 40 422.188 40.625C422.604 41.25 422.292 41.7708 421.25 42.1875C420 42.8125 418.229 43.3333 415.938 43.75L414.375 55.625L422.812 54.375C425.938 39.7917 426.979 32.0833 425.938 31.25C425.729 30.4167 422.812 30.4167 417.188 31.25ZM413.75 31.5625L405 33.125V43.125C405.625 42.9167 406.458 42.7083 407.5 42.5C410.417 41.875 412.292 41.4583 413.125 41.25L413.75 31.5625ZM401.562 33.75L392.812 35L396.25 57.8125L401.875 57.1875V46.25C395.833 46.875 394.271 46.3542 397.188 44.6875C399.062 44.0625 400.625 43.75 401.875 43.75L401.562 33.75ZM412.812 44.375C409.271 45.2083 406.562 45.7292 404.688 45.9375V56.5625L411.562 55.9375L412.812 44.375ZM398.125 62.5C401.25 63.3333 403.542 64.7917 405 66.875C405 67.2917 404.271 68.0208 402.812 69.0625C401.146 70.1042 399.896 71.0417 399.062 71.875C391.354 78.125 385.625 81.25 381.875 81.25C381.875 81.0417 382.708 80.3125 384.375 79.0625C389.583 75.7292 393.438 72.1875 395.938 68.4375C396.771 67.1875 397.188 65.8333 397.188 64.375C397.188 63.3333 397.5 62.7083 398.125 62.5ZM415.938 65.9375C414.896 62.3958 420 64.1667 431.25 71.25C432.5 73.125 433.021 75.5208 432.812 78.4375C432.188 80.7292 431.146 81.1458 429.688 79.6875C424.896 75.3125 420.521 70.9375 416.562 66.5625C416.771 66.7708 416.562 66.5625 415.938 65.9375Z" fill="black"/>
<defs>
<radialGradient id="paint0_radial" cx="0" cy="0" r="1" gradientUnits="userSpaceOnUse" gradientTransform="translate(33.3665 35.0195) rotate(-15) scale(50.7483)">
<stop stop-color="#FFE030"/>
<stop offset="1" stop-color="#FFB92E"/>
</radialGradient>
<radialGradient id="paint1_radial" cx="0" cy="0" r="1" gradientUnits="userSpaceOnUse" gradientTransform="translate(33.3665 35.0195) rotate(-15) scale(39.926)">
<stop stop-color="#FFEA5F"/>
<stop offset="1" stop-color="#FFBC47" stop-opacity="0"/>
</radialGradient>
<linearGradient id="paint2_linear" x1="62.9159" y1="29.5277" x2="62.5083" y2="25.1139" gradientUnits="userSpaceOnUse">
<stop offset="0.00132565" stop-color="#3C2200"/>
<stop offset="1" stop-color="#7A4400"/>
</linearGradient>
<radialGradient id="paint3_radial" cx="0" cy="0" r="1" gradientUnits="userSpaceOnUse" gradientTransform="translate(61.2366 39.2298) rotate(-9.132) scale(7.92876 3.82538)">
<stop offset="0.00132565" stop-color="#7A4400"/>
<stop offset="1" stop-color="#643800"/>
</radialGradient>
<linearGradient id="paint4_linear" x1="60.2137" y1="32.8124" x2="61.0556" y2="37.8654" gradientUnits="userSpaceOnUse">
<stop offset="0.00132565" stop-color="#3C2200"/>
<stop offset="1" stop-color="#512D00"/>
</linearGradient>
<radialGradient id="paint5_radial" cx="0" cy="0" r="1" gradientUnits="userSpaceOnUse" gradientTransform="translate(51.0877 69.1768) rotate(-15) scale(23.1739)">
<stop offset="0.00132565" stop-color="#7A4400"/>
<stop offset="1" stop-color="#643800"/>
</radialGradient>
<linearGradient id="paint6_linear" x1="20.9665" y1="40.733" x2="19.1126" y2="36.7068" gradientUnits="userSpaceOnUse">
<stop offset="0.00132565" stop-color="#3C2200"/>
<stop offset="1" stop-color="#7A4400"/>
</linearGradient>
<radialGradient id="paint7_radial" cx="0" cy="0" r="1" gradientUnits="userSpaceOnUse" gradientTransform="translate(27.2406 48.3405) rotate(159.132) scale(7.92877 3.82538)">
<stop offset="0.00132565" stop-color="#7A4400"/>
<stop offset="1" stop-color="#643800"/>
</radialGradient>
<linearGradient id="paint8_linear" x1="24.9559" y1="42.2548" x2="26.7533" y2="47.0518" gradientUnits="userSpaceOnUse">
<stop offset="0.00132565" stop-color="#3C2200"/>
<stop offset="1" stop-color="#512D00"/>
</linearGradient>
<linearGradient id="paint9_linear" x1="0.579025" y1="61.427" x2="22.7386" y2="74.5429" gradientUnits="userSpaceOnUse">
<stop offset="0.0723628" stop-color="#17BBFE"/>
<stop offset="0.2085" stop-color="#D1F2FF"/>
<stop offset="0.668" stop-color="#80DAFE"/>
<stop offset="1" stop-color="#0099D6"/>
</linearGradient>
<linearGradient id="paint10_linear" x1="29.2934" y1="82.1354" x2="-0.667534" y2="57.6818" gradientUnits="userSpaceOnUse">
<stop stop-color="#D1F2FF"/>
<stop offset="0.668" stop-color="#80DAFE"/>
<stop offset="1" stop-color="#0099D6"/>
</linearGradient>
<linearGradient id="paint11_linear" x1="4.11835" y1="56.6721" x2="23.1023" y2="83.8403" gradientUnits="userSpaceOnUse">
<stop offset="0.566" stop-color="#80DAFE"/>
<stop offset="1" stop-color="#0099D6"/>
</linearGradient>
<linearGradient id="paint12_linear" x1="5.78256" y1="57.7901" x2="20.6931" y2="82.2844" gradientUnits="userSpaceOnUse">
<stop offset="0.566" stop-color="#80DAFE"/>
<stop offset="1" stop-color="#0099D6"/>
</linearGradient>
<linearGradient id="paint13_linear" x1="13.4375" y1="77.0515" x2="9.84789" y2="49.4331" gradientUnits="userSpaceOnUse">
<stop stop-color="white"/>
<stop offset="1" stop-color="#80DAFE"/>
</linearGradient>
<radialGradient id="paint14_radial" cx="0" cy="0" r="1" gradientUnits="userSpaceOnUse" gradientTransform="translate(53.5318 76.9576) rotate(-15) scale(19.2061 5.80602)">
<stop offset="0.2479" stop-color="#FF0000"/>
<stop offset="1" stop-color="#C20000"/>
</radialGradient>
<linearGradient id="paint15_linear" x1="90.9549" y1="37.2108" x2="78.3221" y2="59.6493" gradientUnits="userSpaceOnUse">
<stop offset="0.0723628" stop-color="#17BBFE"/>
<stop offset="0.2085" stop-color="#D1F2FF"/>
<stop offset="0.668" stop-color="#80DAFE"/>
<stop offset="1" stop-color="#0099D6"/>
</linearGradient>
<linearGradient id="paint16_linear" x1="76.4417" y1="69.502" x2="90.1618" y2="33.3441" gradientUnits="userSpaceOnUse">
<stop stop-color="#D1F2FF"/>
<stop offset="0.668" stop-color="#80DAFE"/>
<stop offset="1" stop-color="#0099D6"/>
</linearGradient>
<linearGradient id="paint17_linear" x1="85.5121" y1="34.8628" x2="82.6556" y2="67.883" gradientUnits="userSpaceOnUse">
<stop offset="0.566" stop-color="#80DAFE"/>
<stop offset="1" stop-color="#0099D6"/>
</linearGradient>
<linearGradient id="paint18_linear" x1="84.6299" y1="36.663" x2="83.9642" y2="65.3309" gradientUnits="userSpaceOnUse">
<stop offset="0.566" stop-color="#80DAFE"/>
<stop offset="1" stop-color="#0099D6"/>
</linearGradient>
<linearGradient id="paint19_linear" x1="87.6313" y1="57.1714" x2="76.9307" y2="31.4583" gradientUnits="userSpaceOnUse">
<stop stop-color="white"/>
<stop offset="1" stop-color="#80DAFE"/>
</linearGradient>
<linearGradient id="paint20_linear" x1="21.0107" y1="72.3047" x2="49.8549" y2="64.5759" gradientUnits="userSpaceOnUse">
<stop offset="0.00132565" stop-color="#3C2200"/>
<stop offset="1" stop-color="#512D00"/>
</linearGradient>
<linearGradient id="paint21_linear" x1="78.6919" y1="56.8491" x2="49.8476" y2="64.5779" gradientUnits="userSpaceOnUse">
<stop offset="0.00132565" stop-color="#3C2200"/>
<stop offset="1" stop-color="#512D00"/>
</linearGradient>
<radialGradient id="paint22_radial" cx="0" cy="0" r="1" gradientUnits="userSpaceOnUse" gradientTransform="translate(49.4146 62.9331) rotate(-15) scale(50.8209)">
<stop offset="0.00132565" stop-color="white"/>
<stop offset="1" stop-color="#A9BCBE"/>
</radialGradient>
</defs>
</svg>
