<svg width="263" height="100" viewBox="0 0 263 100" fill="none" xmlns="http://www.w3.org/2000/svg">
<circle cx="50" cy="50" r="45" fill="#19171A"/>
<path fill-rule="evenodd" clip-rule="evenodd" d="M50 90C72.0914 90 90 72.0914 90 50C90 27.9086 72.0914 10 50 10C27.9086 10 10 27.9086 10 50C10 72.0914 27.9086 90 50 90ZM50 100C77.6142 100 100 77.6142 100 50C100 22.3858 77.6142 0 50 0C22.3858 0 0 22.3858 0 50C0 77.6142 22.3858 100 50 100Z" fill="#F4CD9B"/>
<path d="M68.725 35H82.15L66.025 74.45H54.4L49.075 59.45L43.75 74.45H32.125L16 35H29.425L38.95 61.475L41.425 53L34.375 35H45.7L49.075 46.55L52.45 35H63.775L56.725 53L59.2 61.475L68.725 35Z" fill="#F4CD9B"/>
<path d="M138.096 35.1013C138.98 32.4481 139.728 29.5908 140.409 26.6655C140.817 26.5974 141.157 26.5294 141.429 26.4614V35.1013H138.096ZM187.622 25.8491L182.52 31.0194H167.145C168.505 28.5703 169.73 25.8491 170.75 22.9238C172.383 22.9238 173.199 22.3795 173.54 21.4951L161.362 17.8895C160.75 23.1959 159.457 28.4343 157.825 33.1964C155.852 31.0194 153.743 28.8424 153.743 28.8424L150.477 34.421V20.9509C152.382 20.6788 152.858 19.9985 152.994 19.046L141.429 17.8895V24.6926L132.109 22.9918C132.245 31.2915 131.565 40.7478 130.136 47.6189L131.088 48.0951C133.674 45.1018 135.715 41.2921 137.347 37.0061H141.429V52.0409C136.463 53.1974 132.313 54.0138 130 54.422L133.81 65.1028C134.626 64.8307 135.374 64.0824 135.715 63.198C137.755 62.1095 139.66 61.021 141.429 59.9325V82.4507H143.266C146.736 82.4507 150.477 80.6819 150.477 80.0015V54.422C153.947 52.177 156.736 50.2041 158.913 48.6394L158.777 47.9591C155.988 48.6394 153.198 49.3197 150.477 50V37.0061H156.396C154.967 40.4077 153.403 43.401 151.702 45.9862L152.382 46.5304C157.893 43.265 162.451 38.843 166.056 32.9923C164.424 43.265 159.321 54.6941 152.11 62.7217L152.654 63.4021C163.607 56.3949 171.295 45.1018 174.832 33.2644C173.063 49.3197 166.328 65.7831 152.722 77.0762L153.266 77.6885C169.73 69.4568 178.71 55.7146 182.996 40.4077C182.18 57.9596 180.887 68.0962 178.506 70.1371C177.69 70.8174 177.009 71.0895 175.785 71.0895C173.88 71.0895 169.05 70.8174 165.58 70.5453V71.2936C169.118 72.11 171.703 73.3345 173.063 74.8992C174.288 76.1918 174.696 78.5049 174.696 81.6343C179.867 81.6343 183.064 80.4778 185.921 77.8246C190.343 73.6067 191.84 61.9054 192.724 34.6931C194.357 34.421 195.377 33.8767 195.922 33.2644L187.622 25.8491Z" fill="#19171A"/>
<path d="M232.522 28.0941C231.638 31.0194 230.209 34.9652 228.849 37.5504H217.283L213.95 36.3258C216.671 33.7407 219.188 30.9514 221.365 28.0941H232.522ZM245.176 39.4552V54.354H235.312V39.4552H245.176ZM216.331 39.4552H225.855V54.354H216.331V39.4552ZM257.558 60.9529H256.877C255.244 64.7627 253.204 68.6404 251.843 70.1371C250.278 71.5657 248.305 71.8379 244.496 71.8379H222.658C217.964 71.8379 216.331 71.0215 216.331 68.5724V56.2588H245.176V60.7489H246.877C250.21 60.7489 254.972 58.844 255.04 58.2997V41.224C256.605 40.9519 257.558 40.2036 258.034 39.5913L248.85 32.6522L244.428 37.5504H230.753C235.243 35.4414 239.802 32.1759 243.135 29.4547C244.564 29.3187 245.312 29.1146 245.856 28.4343L237.216 21.155L232.25 26.1892H222.862C223.882 24.7606 224.903 23.2639 225.787 21.8353C227.692 21.9033 228.236 21.5632 228.508 20.7468L215.174 17.5493C211.977 27.822 204.834 40.3396 197.691 47.1427L198.167 47.6189C201.092 46.1903 203.949 44.4215 206.671 42.4486V68.3003C206.671 78.0967 211.637 81.022 222.93 81.022H245.38C259.871 81.022 263 78.3008 263 73.9468C263 71.9739 261.639 71.3616 257.626 70.1371L257.558 60.9529Z" fill="#19171A"/>
</svg>
